<?xml version="1.0" encoding="UTF-8" standalone="no"?>
<!DOCTYPE svg PUBLIC "-//W3C//DTD SVG 1.1//EN"
 "http://www.w3.org/Graphics/SVG/1.1/DTD/svg11.dtd">
<!-- Generated by graphviz version 2.43.0 (0)
 -->
<!-- Title: G Pages: 1 -->
<svg width="1197pt" height="1364pt"
 viewBox="0.00 0.00 1197.20 1364.20" xmlns="http://www.w3.org/2000/svg" xmlns:xlink="http://www.w3.org/1999/xlink">
<g id="graph0" class="graph" transform="scale(1 1) rotate(0) translate(21.6 1342.6)">
<title>G</title>
<polygon fill="#111111" stroke="transparent" points="-21.6,21.6 -21.6,-1342.6 1175.6,-1342.6 1175.6,21.6 -21.6,21.6"/>
<!-- FileUploadComponent.js -->
<g id="node1" class="node">
<title>FileUploadComponent.js</title>
<path fill="none" stroke="#cfffac" d="M390.83,-1198C390.83,-1198 241.17,-1198 241.17,-1198 237.33,-1198 233.5,-1194.17 233.5,-1190.33 233.5,-1190.33 233.5,-1182.67 233.5,-1182.67 233.5,-1178.83 237.33,-1175 241.17,-1175 241.17,-1175 390.83,-1175 390.83,-1175 394.67,-1175 398.5,-1178.83 398.5,-1182.67 398.5,-1182.67 398.5,-1190.33 398.5,-1190.33 398.5,-1194.17 394.67,-1198 390.83,-1198"/>
<text text-anchor="middle" x="316" y="-1182.8" font-family="Arial" font-size="14.00" fill="#cfffac">FileUploadComponent.js</text>
</g>
<!-- accessibility&#45;utils.js -->
<g id="node2" class="node">
<title>accessibility&#45;utils.js</title>
<path fill="none" stroke="#cfffac" d="M373.83,-1157C373.83,-1157 258.17,-1157 258.17,-1157 254.33,-1157 250.5,-1153.17 250.5,-1149.33 250.5,-1149.33 250.5,-1141.67 250.5,-1141.67 250.5,-1137.83 254.33,-1134 258.17,-1134 258.17,-1134 373.83,-1134 373.83,-1134 377.67,-1134 381.5,-1137.83 381.5,-1141.67 381.5,-1141.67 381.5,-1149.33 381.5,-1149.33 381.5,-1153.17 377.67,-1157 373.83,-1157"/>
<text text-anchor="middle" x="316" y="-1141.8" font-family="Arial" font-size="14.00" fill="#cfffac">accessibility&#45;utils.js</text>
</g>
<!-- app.js -->
<g id="node3" class="node">
<title>app.js</title>
<path fill="none" stroke="#c6c5fe" d="M107.33,-748C107.33,-748 68.67,-748 68.67,-748 64.83,-748 61,-744.17 61,-740.33 61,-740.33 61,-732.67 61,-732.67 61,-728.83 64.83,-725 68.67,-725 68.67,-725 107.33,-725 107.33,-725 111.17,-725 115,-728.83 115,-732.67 115,-732.67 115,-740.33 115,-740.33 115,-744.17 111.17,-748 107.33,-748"/>
<text text-anchor="middle" x="88" y="-732.8" font-family="Arial" font-size="14.00" fill="#c6c5fe">app.js</text>
</g>
<!-- app.js&#45;&gt;FileUploadComponent.js -->
<g id="edge1" class="edge">
<title>app.js&#45;&gt;FileUploadComponent.js</title>
<path fill="none" stroke="#757575" d="M115.19,-735.28C134.98,-735.9 161.2,-740.31 176,-757.5 235.53,-826.64 150.92,-1098.72 212,-1166.5 215.6,-1170.5 219.75,-1173.84 224.26,-1176.63"/>
<polygon fill="#757575" stroke="#757575" points="222.85,-1179.84 233.35,-1181.32 226.07,-1173.62 222.85,-1179.84"/>
</g>
<!-- app.js&#45;&gt;accessibility&#45;utils.js -->
<g id="edge2" class="edge">
<title>app.js&#45;&gt;accessibility&#45;utils.js</title>
<path fill="none" stroke="#757575" d="M115.14,-735.32C134.91,-735.96 161.11,-740.38 176,-757.5 229.92,-819.51 156.7,-1064.73 212,-1125.5 219.68,-1133.94 229.77,-1139.45 240.63,-1142.95"/>
<polygon fill="#757575" stroke="#757575" points="239.77,-1146.34 250.33,-1145.54 241.57,-1139.58 239.77,-1146.34"/>
</g>
<!-- appConfig.js -->
<g id="node4" class="node">
<title>appConfig.js</title>
<path fill="none" stroke="#c6c5fe" d="M354.33,-1034C354.33,-1034 277.67,-1034 277.67,-1034 273.83,-1034 270,-1030.17 270,-1026.33 270,-1026.33 270,-1018.67 270,-1018.67 270,-1014.83 273.83,-1011 277.67,-1011 277.67,-1011 354.33,-1011 354.33,-1011 358.17,-1011 362,-1014.83 362,-1018.67 362,-1018.67 362,-1026.33 362,-1026.33 362,-1030.17 358.17,-1034 354.33,-1034"/>
<text text-anchor="middle" x="316" y="-1018.8" font-family="Arial" font-size="14.00" fill="#c6c5fe">appConfig.js</text>
</g>
<!-- app.js&#45;&gt;appConfig.js -->
<g id="edge3" class="edge">
<title>app.js&#45;&gt;appConfig.js</title>
<path fill="none" stroke="#757575" d="M115.32,-735.54C134.92,-736.33 160.81,-740.86 176,-757.5 250.2,-838.78 135.98,-922.91 212,-1002.5 224.31,-1015.38 242.24,-1021.34 259.71,-1023.79"/>
<polygon fill="#757575" stroke="#757575" points="259.59,-1027.29 269.9,-1024.85 260.31,-1020.33 259.59,-1027.29"/>
</g>
<!-- auth.js -->
<g id="node5" class="node">
<title>auth.js</title>
<path fill="none" stroke="#c6c5fe" d="M336.33,-226C336.33,-226 295.67,-226 295.67,-226 291.83,-226 288,-222.17 288,-218.33 288,-218.33 288,-210.67 288,-210.67 288,-206.83 291.83,-203 295.67,-203 295.67,-203 336.33,-203 336.33,-203 340.17,-203 344,-206.83 344,-210.67 344,-210.67 344,-218.33 344,-218.33 344,-222.17 340.17,-226 336.33,-226"/>
<text text-anchor="middle" x="316" y="-210.8" font-family="Arial" font-size="14.00" fill="#c6c5fe">auth.js</text>
</g>
<!-- app.js&#45;&gt;auth.js -->
<g id="edge4" class="edge">
<title>app.js&#45;&gt;auth.js</title>
<path fill="none" stroke="#757575" d="M90.19,-724.67C97.37,-655.68 137.12,-305.83 212,-234.5 229.23,-218.09 255.69,-213.22 277.48,-212.38"/>
<polygon fill="#757575" stroke="#757575" points="277.78,-215.88 287.74,-212.26 277.7,-208.88 277.78,-215.88"/>
</g>
<!-- chat.js -->
<g id="node6" class="node">
<title>chat.js</title>
<path fill="none" stroke="#c6c5fe" d="M336.33,-870C336.33,-870 295.67,-870 295.67,-870 291.83,-870 288,-866.17 288,-862.33 288,-862.33 288,-854.67 288,-854.67 288,-850.83 291.83,-847 295.67,-847 295.67,-847 336.33,-847 336.33,-847 340.17,-847 344,-850.83 344,-854.67 344,-854.67 344,-862.33 344,-862.33 344,-866.17 340.17,-870 336.33,-870"/>
<text text-anchor="middle" x="316" y="-854.8" font-family="Arial" font-size="14.00" fill="#c6c5fe">chat.js</text>
</g>
<!-- app.js&#45;&gt;chat.js -->
<g id="edge5" class="edge">
<title>app.js&#45;&gt;chat.js</title>
<path fill="none" stroke="#757575" d="M115.29,-736.9C134.11,-738.49 159.02,-743.41 176,-757.5 206.01,-782.39 181.55,-813.15 212,-837.5 230.37,-852.19 256.36,-857.41 277.63,-858.98"/>
<polygon fill="#757575" stroke="#757575" points="277.48,-862.47 287.64,-859.47 277.83,-855.48 277.48,-862.47"/>
</g>
<!-- init/appInitializer.js -->
<g id="node7" class="node">
<title>init/appInitializer.js</title>
<path fill="none" stroke="#c6c5fe" d="M371.33,-509C371.33,-509 260.67,-509 260.67,-509 256.83,-509 253,-505.17 253,-501.33 253,-501.33 253,-493.67 253,-493.67 253,-489.83 256.83,-486 260.67,-486 260.67,-486 371.33,-486 371.33,-486 375.17,-486 379,-489.83 379,-493.67 379,-493.67 379,-501.33 379,-501.33 379,-505.17 375.17,-509 371.33,-509"/>
<text text-anchor="middle" x="316" y="-493.8" font-family="Arial" font-size="14.00" fill="#c6c5fe">init/appInitializer.js</text>
</g>
<!-- app.js&#45;&gt;init/appInitializer.js -->
<g id="edge6" class="edge">
<title>app.js&#45;&gt;init/appInitializer.js</title>
<path fill="none" stroke="#757575" d="M99.9,-724.97C135.99,-686.81 251.85,-564.28 296.87,-516.67"/>
<polygon fill="#757575" stroke="#757575" points="299.62,-518.86 303.94,-509.19 294.53,-514.05 299.62,-518.86"/>
</g>
<!-- knowledgeBaseComponent.js -->
<g id="node8" class="node">
<title>knowledgeBaseComponent.js</title>
<path fill="none" stroke="#c6c5fe" d="M406.33,-1116C406.33,-1116 225.67,-1116 225.67,-1116 221.83,-1116 218,-1112.17 218,-1108.33 218,-1108.33 218,-1100.67 218,-1100.67 218,-1096.83 221.83,-1093 225.67,-1093 225.67,-1093 406.33,-1093 406.33,-1093 410.17,-1093 414,-1096.83 414,-1100.67 414,-1100.67 414,-1108.33 414,-1108.33 414,-1112.17 410.17,-1116 406.33,-1116"/>
<text text-anchor="middle" x="316" y="-1100.8" font-family="Arial" font-size="14.00" fill="#c6c5fe">knowledgeBaseComponent.js</text>
</g>
<!-- app.js&#45;&gt;knowledgeBaseComponent.js -->
<g id="edge7" class="edge">
<title>app.js&#45;&gt;knowledgeBaseComponent.js</title>
<path fill="none" stroke="#757575" d="M115.08,-735.37C134.82,-736.04 161.01,-740.47 176,-757.5 272.61,-867.25 112.94,-976.96 212,-1084.5 212.65,-1085.2 213.31,-1085.89 213.99,-1086.55"/>
<polygon fill="#757575" stroke="#757575" points="211.87,-1089.34 221.84,-1092.92 216.28,-1083.9 211.87,-1089.34"/>
</g>
<!-- modalConstants.js -->
<g id="node9" class="node">
<title>modalConstants.js</title>
<path fill="none" stroke="#cfffac" d="M619.83,-65C619.83,-65 507.17,-65 507.17,-65 503.33,-65 499.5,-61.17 499.5,-57.33 499.5,-57.33 499.5,-49.67 499.5,-49.67 499.5,-45.83 503.33,-42 507.17,-42 507.17,-42 619.83,-42 619.83,-42 623.67,-42 627.5,-45.83 627.5,-49.67 627.5,-49.67 627.5,-57.33 627.5,-57.33 627.5,-61.17 623.67,-65 619.83,-65"/>
<text text-anchor="middle" x="563.5" y="-49.8" font-family="Arial" font-size="14.00" fill="#cfffac">modalConstants.js</text>
</g>
<!-- app.js&#45;&gt;modalConstants.js -->
<g id="edge8" class="edge">
<title>app.js&#45;&gt;modalConstants.js</title>
<path fill="none" stroke="#757575" d="M89.95,-724.66C95.99,-652.4 131.42,-271.12 212,-193.5 279.74,-128.25 346.22,-212.83 420,-154.5 450.9,-130.07 425.1,-97.94 456,-73.5 465.72,-65.81 477.49,-60.76 489.62,-57.49"/>
<polygon fill="#757575" stroke="#757575" points="490.43,-60.89 499.38,-55.23 488.85,-54.07 490.43,-60.89"/>
</g>
<!-- modalManager.js -->
<g id="node10" class="node">
<title>modalManager.js</title>
<path fill="none" stroke="#c6c5fe" d="M368.83,-146C368.83,-146 263.17,-146 263.17,-146 259.33,-146 255.5,-142.17 255.5,-138.33 255.5,-138.33 255.5,-130.67 255.5,-130.67 255.5,-126.83 259.33,-123 263.17,-123 263.17,-123 368.83,-123 368.83,-123 372.67,-123 376.5,-126.83 376.5,-130.67 376.5,-130.67 376.5,-138.33 376.5,-138.33 376.5,-142.17 372.67,-146 368.83,-146"/>
<text text-anchor="middle" x="316" y="-130.8" font-family="Arial" font-size="14.00" fill="#c6c5fe">modalManager.js</text>
</g>
<!-- app.js&#45;&gt;modalManager.js -->
<g id="edge9" class="edge">
<title>app.js&#45;&gt;modalManager.js</title>
<path fill="none" stroke="#757575" d="M89.83,-724.99C95.4,-651.32 129.51,-246.09 212,-160.5 221.08,-151.08 233.03,-144.89 245.57,-140.85"/>
<polygon fill="#757575" stroke="#757575" points="246.53,-144.22 255.23,-138.17 244.66,-137.47 246.53,-144.22"/>
</g>
<!-- modelConfig.js -->
<g id="node11" class="node">
<title>modelConfig.js</title>
<path fill="none" stroke="#cfffac" d="M361.83,-105C361.83,-105 270.17,-105 270.17,-105 266.33,-105 262.5,-101.17 262.5,-97.33 262.5,-97.33 262.5,-89.67 262.5,-89.67 262.5,-85.83 266.33,-82 270.17,-82 270.17,-82 361.83,-82 361.83,-82 365.67,-82 369.5,-85.83 369.5,-89.67 369.5,-89.67 369.5,-97.33 369.5,-97.33 369.5,-101.17 365.67,-105 361.83,-105"/>
<text text-anchor="middle" x="316" y="-89.8" font-family="Arial" font-size="14.00" fill="#cfffac">modelConfig.js</text>
</g>
<!-- app.js&#45;&gt;modelConfig.js -->
<g id="edge10" class="edge">
<title>app.js&#45;&gt;modelConfig.js</title>
<path fill="none" stroke="#757575" d="M89.58,-724.76C93.71,-646.83 120.94,-204.27 212,-113.5 222.69,-102.84 237.26,-96.99 252.06,-93.95"/>
<polygon fill="#757575" stroke="#757575" points="253.01,-97.34 262.31,-92.26 251.88,-90.43 253.01,-97.34"/>
</g>
<!-- navigationService.js -->
<g id="node12" class="node">
<title>navigationService.js</title>
<path fill="none" stroke="#c6c5fe" d="M376.83,-952C376.83,-952 255.17,-952 255.17,-952 251.33,-952 247.5,-948.17 247.5,-944.33 247.5,-944.33 247.5,-936.67 247.5,-936.67 247.5,-932.83 251.33,-929 255.17,-929 255.17,-929 376.83,-929 376.83,-929 380.67,-929 384.5,-932.83 384.5,-936.67 384.5,-936.67 384.5,-944.33 384.5,-944.33 384.5,-948.17 380.67,-952 376.83,-952"/>
<text text-anchor="middle" x="316" y="-936.8" font-family="Arial" font-size="14.00" fill="#c6c5fe">navigationService.js</text>
</g>
<!-- app.js&#45;&gt;navigationService.js -->
<g id="edge11" class="edge">
<title>app.js&#45;&gt;navigationService.js</title>
<path fill="none" stroke="#757575" d="M115.39,-735.87C134.76,-736.88 160.33,-741.53 176,-757.5 227.95,-810.47 158.87,-868.71 212,-920.5 219.24,-927.56 228.18,-932.49 237.75,-935.9"/>
<polygon fill="#757575" stroke="#757575" points="236.9,-939.3 247.48,-938.81 238.9,-932.59 236.9,-939.3"/>
</g>
<!-- project&#45;details&#45;enhancements.js -->
<g id="node13" class="node">
<title>project&#45;details&#45;enhancements.js</title>
<path fill="none" stroke="#c6c5fe" d="M412.33,-829C412.33,-829 219.67,-829 219.67,-829 215.83,-829 212,-825.17 212,-821.33 212,-821.33 212,-813.67 212,-813.67 212,-809.83 215.83,-806 219.67,-806 219.67,-806 412.33,-806 412.33,-806 416.17,-806 420,-809.83 420,-813.67 420,-813.67 420,-821.33 420,-821.33 420,-825.17 416.17,-829 412.33,-829"/>
<text text-anchor="middle" x="316" y="-813.8" font-family="Arial" font-size="14.00" fill="#c6c5fe">project&#45;details&#45;enhancements.js</text>
</g>
<!-- app.js&#45;&gt;project&#45;details&#45;enhancements.js -->
<g id="edge12" class="edge">
<title>app.js&#45;&gt;project&#45;details&#45;enhancements.js</title>
<path fill="none" stroke="#757575" d="M115.24,-738.8C133.33,-741.31 157.38,-746.56 176,-757.5 196.34,-769.45 191.45,-784.92 212,-796.5 215.91,-798.7 220.01,-800.67 224.24,-802.44"/>
<polygon fill="#757575" stroke="#757575" points="223.08,-805.74 233.67,-805.99 225.55,-799.19 223.08,-805.74"/>
</g>
<!-- projectDashboard.js -->
<g id="node14" class="node">
<title>projectDashboard.js</title>
<path fill="none" stroke="#c6c5fe" d="M376.83,-993C376.83,-993 255.17,-993 255.17,-993 251.33,-993 247.5,-989.17 247.5,-985.33 247.5,-985.33 247.5,-977.67 247.5,-977.67 247.5,-973.83 251.33,-970 255.17,-970 255.17,-970 376.83,-970 376.83,-970 380.67,-970 384.5,-973.83 384.5,-977.67 384.5,-977.67 384.5,-985.33 384.5,-985.33 384.5,-989.17 380.67,-993 376.83,-993"/>
<text text-anchor="middle" x="316" y="-977.8" font-family="Arial" font-size="14.00" fill="#c6c5fe">projectDashboard.js</text>
</g>
<!-- app.js&#45;&gt;projectDashboard.js -->
<g id="edge13" class="edge">
<title>app.js&#45;&gt;projectDashboard.js</title>
<path fill="none" stroke="#757575" d="M115.18,-735.66C134.71,-736.52 160.57,-741.08 176,-757.5 239.05,-824.59 147.46,-895.84 212,-961.5 219.14,-968.76 228.06,-973.8 237.66,-977.25"/>
<polygon fill="#757575" stroke="#757575" points="236.85,-980.66 247.44,-980.19 238.87,-973.96 236.85,-980.66"/>
</g>
<!-- projectDetailsComponent.js -->
<g id="node15" class="node">
<title>projectDetailsComponent.js</title>
<path fill="none" stroke="#c6c5fe" d="M399.33,-911C399.33,-911 232.67,-911 232.67,-911 228.83,-911 225,-907.17 225,-903.33 225,-903.33 225,-895.67 225,-895.67 225,-891.83 228.83,-888 232.67,-888 232.67,-888 399.33,-888 399.33,-888 403.17,-888 407,-891.83 407,-895.67 407,-895.67 407,-903.33 407,-903.33 407,-907.17 403.17,-911 399.33,-911"/>
<text text-anchor="middle" x="316" y="-895.8" font-family="Arial" font-size="14.00" fill="#c6c5fe">projectDetailsComponent.js</text>
</g>
<!-- app.js&#45;&gt;projectDetailsComponent.js -->
<g id="edge14" class="edge">
<title>app.js&#45;&gt;projectDetailsComponent.js</title>
<path fill="none" stroke="#757575" d="M115.08,-736.19C134.29,-737.36 159.79,-742.08 176,-757.5 216.96,-796.46 170.17,-841.47 212,-879.5 213.34,-880.72 214.74,-881.88 216.18,-882.97"/>
<polygon fill="#757575" stroke="#757575" points="214.59,-886.11 224.89,-888.59 218.38,-880.23 214.59,-886.11"/>
</g>
<!-- projectListComponent.js -->
<g id="node16" class="node">
<title>projectListComponent.js</title>
<path fill="none" stroke="#c6c5fe" d="M389.33,-1075C389.33,-1075 242.67,-1075 242.67,-1075 238.83,-1075 235,-1071.17 235,-1067.33 235,-1067.33 235,-1059.67 235,-1059.67 235,-1055.83 238.83,-1052 242.67,-1052 242.67,-1052 389.33,-1052 389.33,-1052 393.17,-1052 397,-1055.83 397,-1059.67 397,-1059.67 397,-1067.33 397,-1067.33 397,-1071.17 393.17,-1075 389.33,-1075"/>
<text text-anchor="middle" x="316" y="-1059.8" font-family="Arial" font-size="14.00" fill="#c6c5fe">projectListComponent.js</text>
</g>
<!-- app.js&#45;&gt;projectListComponent.js -->
<g id="edge15" class="edge">
<title>app.js&#45;&gt;projectListComponent.js</title>
<path fill="none" stroke="#757575" d="M115.01,-735.43C134.71,-736.14 160.88,-740.59 176,-757.5 261.4,-853 124.47,-949.94 212,-1043.5 215.97,-1047.74 220.54,-1051.23 225.51,-1054.1"/>
<polygon fill="#757575" stroke="#757575" points="224.32,-1057.41 234.84,-1058.62 227.37,-1051.11 224.32,-1057.41"/>
</g>
<!-- projectManager.js -->
<g id="node17" class="node">
<title>projectManager.js</title>
<path fill="none" stroke="#cfffac" d="M992.83,-748C992.83,-748 884.17,-748 884.17,-748 880.33,-748 876.5,-744.17 876.5,-740.33 876.5,-740.33 876.5,-732.67 876.5,-732.67 876.5,-728.83 880.33,-725 884.17,-725 884.17,-725 992.83,-725 992.83,-725 996.67,-725 1000.5,-728.83 1000.5,-732.67 1000.5,-732.67 1000.5,-740.33 1000.5,-740.33 1000.5,-744.17 996.67,-748 992.83,-748"/>
<text text-anchor="middle" x="938.5" y="-732.8" font-family="Arial" font-size="14.00" fill="#cfffac">projectManager.js</text>
</g>
<!-- app.js&#45;&gt;projectManager.js -->
<g id="edge16" class="edge">
<title>app.js&#45;&gt;projectManager.js</title>
<path fill="none" stroke="#757575" d="M115.32,-736.5C230.02,-736.5 688.33,-736.5 866.32,-736.5"/>
<polygon fill="#757575" stroke="#757575" points="866.36,-740 876.36,-736.5 866.36,-733 866.36,-740"/>
</g>
<!-- sidebar.js -->
<g id="node18" class="node">
<title>sidebar.js</title>
<path fill="none" stroke="#c6c5fe" d="M345.33,-267C345.33,-267 286.67,-267 286.67,-267 282.83,-267 279,-263.17 279,-259.33 279,-259.33 279,-251.67 279,-251.67 279,-247.83 282.83,-244 286.67,-244 286.67,-244 345.33,-244 345.33,-244 349.17,-244 353,-247.83 353,-251.67 353,-251.67 353,-259.33 353,-259.33 353,-263.17 349.17,-267 345.33,-267"/>
<text text-anchor="middle" x="316" y="-251.8" font-family="Arial" font-size="14.00" fill="#c6c5fe">sidebar.js</text>
</g>
<!-- app.js&#45;&gt;sidebar.js -->
<g id="edge17" class="edge">
<title>app.js&#45;&gt;sidebar.js</title>
<path fill="none" stroke="#757575" d="M90.53,-725C99.29,-660.81 145.05,-347.34 212,-281.5 226.89,-266.85 248.77,-260.08 268.53,-257.08"/>
<polygon fill="#757575" stroke="#757575" points="269.13,-260.53 278.63,-255.83 268.27,-253.58 269.13,-260.53"/>
</g>
<!-- tokenStatsManager.js -->
<g id="node19" class="node">
<title>tokenStatsManager.js</title>
<path fill="none" stroke="#cfffac" d="M381.83,-64C381.83,-64 250.17,-64 250.17,-64 246.33,-64 242.5,-60.17 242.5,-56.33 242.5,-56.33 242.5,-48.67 242.5,-48.67 242.5,-44.83 246.33,-41 250.17,-41 250.17,-41 381.83,-41 381.83,-41 385.67,-41 389.5,-44.83 389.5,-48.67 389.5,-48.67 389.5,-56.33 389.5,-56.33 389.5,-60.17 385.67,-64 381.83,-64"/>
<text text-anchor="middle" x="316" y="-48.8" font-family="Arial" font-size="14.00" fill="#cfffac">tokenStatsManager.js</text>
</g>
<!-- app.js&#45;&gt;tokenStatsManager.js -->
<g id="edge18" class="edge">
<title>app.js&#45;&gt;tokenStatsManager.js</title>
<path fill="none" stroke="#757575" d="M89.43,-724.79C92.63,-644.02 115.43,-169.91 212,-72.5 217.99,-66.46 225.23,-61.95 233.05,-58.63"/>
<polygon fill="#757575" stroke="#757575" points="234.24,-61.92 242.47,-55.24 231.88,-55.33 234.24,-61.92"/>
</g>
<!-- uiRenderer.js -->
<g id="node20" class="node">
<title>uiRenderer.js</title>
<path fill="none" stroke="#cfffac" d="M356.33,-23C356.33,-23 275.67,-23 275.67,-23 271.83,-23 268,-19.17 268,-15.33 268,-15.33 268,-7.67 268,-7.67 268,-3.83 271.83,0 275.67,0 275.67,0 356.33,0 356.33,0 360.17,0 364,-3.83 364,-7.67 364,-7.67 364,-15.33 364,-15.33 364,-19.17 360.17,-23 356.33,-23"/>
<text text-anchor="middle" x="316" y="-7.8" font-family="Arial" font-size="14.00" fill="#cfffac">uiRenderer.js</text>
</g>
<!-- app.js&#45;&gt;uiRenderer.js -->
<g id="edge19" class="edge">
<title>app.js&#45;&gt;uiRenderer.js</title>
<path fill="none" stroke="#757575" d="M89.29,-724.89C91.62,-641.6 109.87,-135.6 212,-31.5 223.94,-19.33 240.91,-13.39 257.64,-10.74"/>
<polygon fill="#757575" stroke="#757575" points="258.47,-14.17 267.98,-9.5 257.64,-7.22 258.47,-14.17"/>
</g>
<!-- utils/apiClient.js -->
<g id="node21" class="node">
<title>utils/apiClient.js</title>
<path fill="none" stroke="#cfffac" d="M985.83,-707C985.83,-707 891.17,-707 891.17,-707 887.33,-707 883.5,-703.17 883.5,-699.33 883.5,-699.33 883.5,-691.67 883.5,-691.67 883.5,-687.83 887.33,-684 891.17,-684 891.17,-684 985.83,-684 985.83,-684 989.67,-684 993.5,-687.83 993.5,-691.67 993.5,-691.67 993.5,-699.33 993.5,-699.33 993.5,-703.17 989.67,-707 985.83,-707"/>
<text text-anchor="middle" x="938.5" y="-691.8" font-family="Arial" font-size="14.00" fill="#cfffac">utils/apiClient.js</text>
</g>
<!-- app.js&#45;&gt;utils/apiClient.js -->
<g id="edge20" class="edge">
<title>app.js&#45;&gt;utils/apiClient.js</title>
<path fill="none" stroke="#757575" d="M115.32,-735.23C231.55,-729.61 700.62,-706.95 873.29,-698.6"/>
<polygon fill="#757575" stroke="#757575" points="873.68,-702.09 883.5,-698.11 873.34,-695.1 873.68,-702.09"/>
</g>
<!-- utils/apiEndpoints.js -->
<g id="node22" class="node">
<title>utils/apiEndpoints.js</title>
<path fill="none" stroke="#cfffac" d="M376.33,-1280C376.33,-1280 255.67,-1280 255.67,-1280 251.83,-1280 248,-1276.17 248,-1272.33 248,-1272.33 248,-1264.67 248,-1264.67 248,-1260.83 251.83,-1257 255.67,-1257 255.67,-1257 376.33,-1257 376.33,-1257 380.17,-1257 384,-1260.83 384,-1264.67 384,-1264.67 384,-1272.33 384,-1272.33 384,-1276.17 380.17,-1280 376.33,-1280"/>
<text text-anchor="middle" x="316" y="-1264.8" font-family="Arial" font-size="14.00" fill="#cfffac">utils/apiEndpoints.js</text>
</g>
<!-- app.js&#45;&gt;utils/apiEndpoints.js -->
<g id="edge21" class="edge">
<title>app.js&#45;&gt;utils/apiEndpoints.js</title>
<path fill="none" stroke="#757575" d="M115.26,-735.22C135.09,-735.8 161.32,-740.2 176,-757.5 246.78,-840.92 139.36,-1166.69 212,-1248.5 219.01,-1256.4 228.13,-1261.74 238.04,-1265.29"/>
<polygon fill="#757575" stroke="#757575" points="237.16,-1268.68 247.74,-1268.16 239.15,-1261.97 237.16,-1268.68"/>
</g>
<!-- utils/browserService.js -->
<g id="node23" class="node">
<title>utils/browserService.js</title>
<path fill="none" stroke="#c6c5fe" d="M1006.33,-388C1006.33,-388 870.67,-388 870.67,-388 866.83,-388 863,-384.17 863,-380.33 863,-380.33 863,-372.67 863,-372.67 863,-368.83 866.83,-365 870.67,-365 870.67,-365 1006.33,-365 1006.33,-365 1010.17,-365 1014,-368.83 1014,-372.67 1014,-372.67 1014,-380.33 1014,-380.33 1014,-384.17 1010.17,-388 1006.33,-388"/>
<text text-anchor="middle" x="938.5" y="-372.8" font-family="Arial" font-size="14.00" fill="#c6c5fe">utils/browserService.js</text>
</g>
<!-- app.js&#45;&gt;utils/browserService.js -->
<g id="edge22" class="edge">
<title>app.js&#45;&gt;utils/browserService.js</title>
<path fill="none" stroke="#757575" d="M92.05,-724.88C102.74,-685.89 141.75,-557.69 212,-476.5 297.17,-378.06 331.38,-352.1 456,-314.5 616.31,-266.13 817.8,-330.18 900,-361.29"/>
<polygon fill="#757575" stroke="#757575" points="898.83,-364.59 909.42,-364.91 901.34,-358.06 898.83,-364.59"/>
</g>
<!-- utils/globalUtils.js -->
<g id="node24" class="node">
<title>utils/globalUtils.js</title>
<path fill="none" stroke="#c6c5fe" d="M819.33,-668C819.33,-668 714.67,-668 714.67,-668 710.83,-668 707,-664.17 707,-660.33 707,-660.33 707,-652.67 707,-652.67 707,-648.83 710.83,-645 714.67,-645 714.67,-645 819.33,-645 819.33,-645 823.17,-645 827,-648.83 827,-652.67 827,-652.67 827,-660.33 827,-660.33 827,-664.17 823.17,-668 819.33,-668"/>
<text text-anchor="middle" x="767" y="-652.8" font-family="Arial" font-size="14.00" fill="#c6c5fe">utils/globalUtils.js</text>
</g>
<!-- app.js&#45;&gt;utils/globalUtils.js -->
<g id="edge23" class="edge">
<title>app.js&#45;&gt;utils/globalUtils.js</title>
<path fill="none" stroke="#757575" d="M110.01,-724.93C133.91,-712.41 174.49,-693.1 212,-684.5 382.79,-645.37 590.65,-647.72 696.61,-652.35"/>
<polygon fill="#757575" stroke="#757575" points="696.71,-655.86 706.86,-652.82 697.03,-648.86 696.71,-655.86"/>
</g>
<!-- utils/htmlTemplateLoader.js -->
<g id="node25" class="node">
<title>utils/htmlTemplateLoader.js</title>
<path fill="none" stroke="#cfffac" d="M398.83,-1239C398.83,-1239 233.17,-1239 233.17,-1239 229.33,-1239 225.5,-1235.17 225.5,-1231.33 225.5,-1231.33 225.5,-1223.67 225.5,-1223.67 225.5,-1219.83 229.33,-1216 233.17,-1216 233.17,-1216 398.83,-1216 398.83,-1216 402.67,-1216 406.5,-1219.83 406.5,-1223.67 406.5,-1223.67 406.5,-1231.33 406.5,-1231.33 406.5,-1235.17 402.67,-1239 398.83,-1239"/>
<text text-anchor="middle" x="316" y="-1223.8" font-family="Arial" font-size="14.00" fill="#cfffac">utils/htmlTemplateLoader.js</text>
</g>
<!-- app.js&#45;&gt;utils/htmlTemplateLoader.js -->
<g id="edge24" class="edge">
<title>app.js&#45;&gt;utils/htmlTemplateLoader.js</title>
<path fill="none" stroke="#757575" d="M115.22,-735.25C135.04,-735.85 161.27,-740.25 176,-757.5 241.15,-833.78 145.14,-1132.71 212,-1207.5 213.58,-1209.27 215.26,-1210.9 217.04,-1212.42"/>
<polygon fill="#757575" stroke="#757575" points="215.17,-1215.39 225.35,-1218.34 219.23,-1209.69 215.17,-1215.39"/>
</g>
<!-- utils/polyfillCustomEvent.js -->
<g id="node26" class="node">
<title>utils/polyfillCustomEvent.js</title>
<path fill="none" stroke="#cfffac" d="M644.33,-632C644.33,-632 482.67,-632 482.67,-632 478.83,-632 475,-628.17 475,-624.33 475,-624.33 475,-616.67 475,-616.67 475,-612.83 478.83,-609 482.67,-609 482.67,-609 644.33,-609 644.33,-609 648.17,-609 652,-612.83 652,-616.67 652,-616.67 652,-624.33 652,-624.33 652,-628.17 648.17,-632 644.33,-632"/>
<text text-anchor="middle" x="563.5" y="-616.8" font-family="Arial" font-size="14.00" fill="#cfffac">utils/polyfillCustomEvent.js</text>
</g>
<!-- app.js&#45;&gt;utils/polyfillCustomEvent.js -->
<g id="edge25" class="edge">
<title>app.js&#45;&gt;utils/polyfillCustomEvent.js</title>
<path fill="none" stroke="#757575" d="M100.22,-724.78C120.39,-704.6 165.07,-663.78 212,-646.5 293.32,-616.55 392.28,-611.83 464.28,-613.56"/>
<polygon fill="#757575" stroke="#757575" points="464.61,-617.07 474.7,-613.86 464.81,-610.08 464.61,-617.07"/>
</g>
<!-- utils/selectorConstants.js -->
<g id="node27" class="node">
<title>utils/selectorConstants.js</title>
<path fill="none" stroke="#cfffac" d="M638.83,-1034C638.83,-1034 488.17,-1034 488.17,-1034 484.33,-1034 480.5,-1030.17 480.5,-1026.33 480.5,-1026.33 480.5,-1018.67 480.5,-1018.67 480.5,-1014.83 484.33,-1011 488.17,-1011 488.17,-1011 638.83,-1011 638.83,-1011 642.67,-1011 646.5,-1014.83 646.5,-1018.67 646.5,-1018.67 646.5,-1026.33 646.5,-1026.33 646.5,-1030.17 642.67,-1034 638.83,-1034"/>
<text text-anchor="middle" x="563.5" y="-1018.8" font-family="Arial" font-size="14.00" fill="#cfffac">utils/selectorConstants.js</text>
</g>
<!-- appConfig.js&#45;&gt;utils/selectorConstants.js -->
<g id="edge26" class="edge">
<title>appConfig.js&#45;&gt;utils/selectorConstants.js</title>
<path fill="none" stroke="#757575" d="M362.03,-1022.5C392.14,-1022.5 432.86,-1022.5 469.73,-1022.5"/>
<polygon fill="#757575" stroke="#757575" points="470.02,-1026 480.02,-1022.5 470.02,-1019 470.02,-1026"/>
</g>
<!-- authFormListenerFactory.js -->
<g id="node28" class="node">
<title>authFormListenerFactory.js</title>
<path fill="none" stroke="#cfffac" d="M646.33,-106C646.33,-106 480.67,-106 480.67,-106 476.83,-106 473,-102.17 473,-98.33 473,-98.33 473,-90.67 473,-90.67 473,-86.83 476.83,-83 480.67,-83 480.67,-83 646.33,-83 646.33,-83 650.17,-83 654,-86.83 654,-90.67 654,-90.67 654,-98.33 654,-98.33 654,-102.17 650.17,-106 646.33,-106"/>
<text text-anchor="middle" x="563.5" y="-90.8" font-family="Arial" font-size="14.00" fill="#cfffac">authFormListenerFactory.js</text>
</g>
<!-- auth.js&#45;&gt;authFormListenerFactory.js -->
<g id="edge27" class="edge">
<title>auth.js&#45;&gt;authFormListenerFactory.js</title>
<path fill="none" stroke="#757575" d="M344.31,-213.79C366.86,-211.88 398.53,-205.95 420,-188.5 448.38,-165.43 426.92,-136.69 456,-114.5 458.5,-112.59 461.13,-110.85 463.85,-109.26"/>
<polygon fill="#757575" stroke="#757575" points="465.55,-112.32 472.87,-104.67 462.37,-106.08 465.55,-112.32"/>
</g>
<!-- utils/getSafeHandler.js -->
<g id="node30" class="node">
<title>utils/getSafeHandler.js</title>
<path fill="none" stroke="#cfffac" d="M631.33,-910C631.33,-910 495.67,-910 495.67,-910 491.83,-910 488,-906.17 488,-902.33 488,-902.33 488,-894.67 488,-894.67 488,-890.83 491.83,-887 495.67,-887 495.67,-887 631.33,-887 631.33,-887 635.17,-887 639,-890.83 639,-894.67 639,-894.67 639,-902.33 639,-902.33 639,-906.17 635.17,-910 631.33,-910"/>
<text text-anchor="middle" x="563.5" y="-894.8" font-family="Arial" font-size="14.00" fill="#cfffac">utils/getSafeHandler.js</text>
</g>
<!-- chat.js&#45;&gt;utils/getSafeHandler.js -->
<g id="edge28" class="edge">
<title>chat.js&#45;&gt;utils/getSafeHandler.js</title>
<path fill="none" stroke="#757575" d="M344.21,-862.93C377.19,-868.31 434.26,-877.61 481.78,-885.35"/>
<polygon fill="#757575" stroke="#757575" points="481.33,-888.82 491.76,-886.97 482.45,-881.91 481.33,-888.82"/>
</g>
<!-- init/appInitializer.js&#45;&gt;utils/polyfillCustomEvent.js -->
<g id="edge40" class="edge">
<title>init/appInitializer.js&#45;&gt;utils/polyfillCustomEvent.js</title>
<path fill="none" stroke="#757575" d="M328.85,-509.1C351.5,-530.57 403.38,-576.39 456,-599.5 461.66,-601.99 467.62,-604.18 473.71,-606.12"/>
<polygon fill="#757575" stroke="#757575" points="472.78,-609.49 483.36,-608.95 474.75,-602.78 472.78,-609.49"/>
</g>
<!-- eventHandler.js -->
<g id="node36" class="node">
<title>eventHandler.js</title>
<path fill="none" stroke="#c6c5fe" d="M610.83,-468C610.83,-468 516.17,-468 516.17,-468 512.33,-468 508.5,-464.17 508.5,-460.33 508.5,-460.33 508.5,-452.67 508.5,-452.67 508.5,-448.83 512.33,-445 516.17,-445 516.17,-445 610.83,-445 610.83,-445 614.67,-445 618.5,-448.83 618.5,-452.67 618.5,-452.67 618.5,-460.33 618.5,-460.33 618.5,-464.17 614.67,-468 610.83,-468"/>
<text text-anchor="middle" x="563.5" y="-452.8" font-family="Arial" font-size="14.00" fill="#c6c5fe">eventHandler.js</text>
</g>
<!-- init/appInitializer.js&#45;&gt;eventHandler.js -->
<g id="edge34" class="edge">
<title>init/appInitializer.js&#45;&gt;eventHandler.js</title>
<path fill="none" stroke="#757575" d="M379.27,-487.1C415.62,-481.03 461.42,-473.38 498.13,-467.25"/>
<polygon fill="#757575" stroke="#757575" points="498.94,-470.66 508.23,-465.56 497.79,-463.76 498.94,-470.66"/>
</g>
<!-- logDeliveryService.js -->
<g id="node38" class="node">
<title>logDeliveryService.js</title>
<path fill="none" stroke="#cfffac" d="M626.83,-509C626.83,-509 500.17,-509 500.17,-509 496.33,-509 492.5,-505.17 492.5,-501.33 492.5,-501.33 492.5,-493.67 492.5,-493.67 492.5,-489.83 496.33,-486 500.17,-486 500.17,-486 626.83,-486 626.83,-486 630.67,-486 634.5,-489.83 634.5,-493.67 634.5,-493.67 634.5,-501.33 634.5,-501.33 634.5,-505.17 630.67,-509 626.83,-509"/>
<text text-anchor="middle" x="563.5" y="-493.8" font-family="Arial" font-size="14.00" fill="#cfffac">logDeliveryService.js</text>
</g>
<!-- init/appInitializer.js&#45;&gt;logDeliveryService.js -->
<g id="edge35" class="edge">
<title>init/appInitializer.js&#45;&gt;logDeliveryService.js</title>
<path fill="none" stroke="#757575" d="M379.27,-497.5C410.55,-497.5 448.82,-497.5 482.28,-497.5"/>
<polygon fill="#757575" stroke="#757575" points="482.5,-501 492.5,-497.5 482.5,-494 482.5,-501"/>
</g>
<!-- logger.js -->
<g id="node39" class="node">
<title>logger.js</title>
<path fill="none" stroke="#cfffac" d="M589.33,-388C589.33,-388 537.67,-388 537.67,-388 533.83,-388 530,-384.17 530,-380.33 530,-380.33 530,-372.67 530,-372.67 530,-368.83 533.83,-365 537.67,-365 537.67,-365 589.33,-365 589.33,-365 593.17,-365 597,-368.83 597,-372.67 597,-372.67 597,-380.33 597,-380.33 597,-384.17 593.17,-388 589.33,-388"/>
<text text-anchor="middle" x="563.5" y="-372.8" font-family="Arial" font-size="14.00" fill="#cfffac">logger.js</text>
</g>
<!-- init/appInitializer.js&#45;&gt;logger.js -->
<g id="edge36" class="edge">
<title>init/appInitializer.js&#45;&gt;logger.js</title>
<path fill="none" stroke="#757575" d="M330.59,-485.69C354.37,-465.62 405.81,-424.88 456,-402.5 476.13,-393.52 499.84,-387.35 519.78,-383.27"/>
<polygon fill="#757575" stroke="#757575" points="520.66,-386.67 529.82,-381.33 519.34,-379.8 520.66,-386.67"/>
</g>
<!-- safeHandler.js -->
<g id="node40" class="node">
<title>safeHandler.js</title>
<path fill="none" stroke="#cfffac" d="M606.83,-347C606.83,-347 520.17,-347 520.17,-347 516.33,-347 512.5,-343.17 512.5,-339.33 512.5,-339.33 512.5,-331.67 512.5,-331.67 512.5,-327.83 516.33,-324 520.17,-324 520.17,-324 606.83,-324 606.83,-324 610.67,-324 614.5,-327.83 614.5,-331.67 614.5,-331.67 614.5,-339.33 614.5,-339.33 614.5,-343.17 610.67,-347 606.83,-347"/>
<text text-anchor="middle" x="563.5" y="-331.8" font-family="Arial" font-size="14.00" fill="#cfffac">safeHandler.js</text>
</g>
<!-- init/appInitializer.js&#45;&gt;safeHandler.js -->
<g id="edge37" class="edge">
<title>init/appInitializer.js&#45;&gt;safeHandler.js</title>
<path fill="none" stroke="#757575" d="M324.74,-485.6C343.53,-457.77 394.54,-388.35 456,-355.5 470.09,-347.97 486.54,-343.24 502.25,-340.27"/>
<polygon fill="#757575" stroke="#757575" points="503.15,-343.67 512.43,-338.56 501.99,-336.77 503.15,-343.67"/>
</g>
<!-- utils/domAPI.js -->
<g id="node41" class="node">
<title>utils/domAPI.js</title>
<path fill="none" stroke="#cfffac" d="M609.33,-591C609.33,-591 517.67,-591 517.67,-591 513.83,-591 510,-587.17 510,-583.33 510,-583.33 510,-575.67 510,-575.67 510,-571.83 513.83,-568 517.67,-568 517.67,-568 609.33,-568 609.33,-568 613.17,-568 617,-571.83 617,-575.67 617,-575.67 617,-583.33 617,-583.33 617,-587.17 613.17,-591 609.33,-591"/>
<text text-anchor="middle" x="563.5" y="-575.8" font-family="Arial" font-size="14.00" fill="#cfffac">utils/domAPI.js</text>
</g>
<!-- init/appInitializer.js&#45;&gt;utils/domAPI.js -->
<g id="edge38" class="edge">
<title>init/appInitializer.js&#45;&gt;utils/domAPI.js</title>
<path fill="none" stroke="#757575" d="M339.53,-509.23C366.54,-522.85 413.51,-545.16 456,-558.5 470.03,-562.9 485.39,-566.57 499.98,-569.54"/>
<polygon fill="#757575" stroke="#757575" points="499.44,-573.01 509.93,-571.49 500.78,-566.14 499.44,-573.01"/>
</g>
<!-- utils/domReadinessService.js -->
<g id="node42" class="node">
<title>utils/domReadinessService.js</title>
<path fill="none" stroke="#cfffac" d="M652.83,-550C652.83,-550 474.17,-550 474.17,-550 470.33,-550 466.5,-546.17 466.5,-542.33 466.5,-542.33 466.5,-534.67 466.5,-534.67 466.5,-530.83 470.33,-527 474.17,-527 474.17,-527 652.83,-527 652.83,-527 656.67,-527 660.5,-530.83 660.5,-534.67 660.5,-534.67 660.5,-542.33 660.5,-542.33 660.5,-546.17 656.67,-550 652.83,-550"/>
<text text-anchor="middle" x="563.5" y="-534.8" font-family="Arial" font-size="14.00" fill="#cfffac">utils/domReadinessService.js</text>
</g>
<!-- init/appInitializer.js&#45;&gt;utils/domReadinessService.js -->
<g id="edge39" class="edge">
<title>init/appInitializer.js&#45;&gt;utils/domReadinessService.js</title>
<path fill="none" stroke="#757575" d="M379.27,-507.9C410.81,-513.17 449.45,-519.62 483.11,-525.24"/>
<polygon fill="#757575" stroke="#757575" points="482.94,-528.76 493.38,-526.96 484.09,-521.86 482.94,-528.76"/>
</g>
<!-- utils/session.js -->
<g id="node43" class="node">
<title>utils/session.js</title>
<path fill="none" stroke="#cfffac" d="M1146.33,-408C1146.33,-408 1057.67,-408 1057.67,-408 1053.83,-408 1050,-404.17 1050,-400.33 1050,-400.33 1050,-392.67 1050,-392.67 1050,-388.83 1053.83,-385 1057.67,-385 1057.67,-385 1146.33,-385 1146.33,-385 1150.17,-385 1154,-388.83 1154,-392.67 1154,-392.67 1154,-400.33 1154,-400.33 1154,-404.17 1150.17,-408 1146.33,-408"/>
<text text-anchor="middle" x="1102" y="-392.8" font-family="Arial" font-size="14.00" fill="#cfffac">utils/session.js</text>
</g>
<!-- init/appInitializer.js&#45;&gt;utils/session.js -->
<g id="edge41" class="edge">
<title>init/appInitializer.js&#45;&gt;utils/session.js</title>
<path fill="none" stroke="#757575" d="M336.9,-485.86C363.18,-471.14 411.34,-446.43 456,-435.5 565.5,-408.71 900.58,-399.95 1039.58,-397.42"/>
<polygon fill="#757575" stroke="#757575" points="1039.71,-400.92 1049.64,-397.24 1039.58,-393.92 1039.71,-400.92"/>
</g>
<!-- knowledgeBaseComponent.js&#45;&gt;utils/selectorConstants.js -->
<g id="edge44" class="edge">
<title>knowledgeBaseComponent.js&#45;&gt;utils/selectorConstants.js</title>
<path fill="none" stroke="#757575" d="M391.47,-1092.95C401.2,-1090.6 410.93,-1087.81 420,-1084.5 437.2,-1078.23 439.45,-1072.32 456,-1064.5 476.85,-1054.65 500.67,-1045.1 520.5,-1037.6"/>
<polygon fill="#757575" stroke="#757575" points="521.73,-1040.88 529.87,-1034.1 519.28,-1034.32 521.73,-1040.88"/>
</g>
<!-- knowledgeBaseManager.js -->
<g id="node45" class="node">
<title>knowledgeBaseManager.js</title>
<path fill="none" stroke="#cfffac" d="M645.33,-1137C645.33,-1137 481.67,-1137 481.67,-1137 477.83,-1137 474,-1133.17 474,-1129.33 474,-1129.33 474,-1121.67 474,-1121.67 474,-1117.83 477.83,-1114 481.67,-1114 481.67,-1114 645.33,-1114 645.33,-1114 649.17,-1114 653,-1117.83 653,-1121.67 653,-1121.67 653,-1129.33 653,-1129.33 653,-1133.17 649.17,-1137 645.33,-1137"/>
<text text-anchor="middle" x="563.5" y="-1121.8" font-family="Arial" font-size="14.00" fill="#cfffac">knowledgeBaseManager.js</text>
</g>
<!-- knowledgeBaseComponent.js&#45;&gt;knowledgeBaseManager.js -->
<g id="edge42" class="edge">
<title>knowledgeBaseComponent.js&#45;&gt;knowledgeBaseManager.js</title>
<path fill="none" stroke="#757575" d="M414.03,-1112.8C430.34,-1114.2 447.29,-1115.65 463.66,-1117.04"/>
<polygon fill="#757575" stroke="#757575" points="463.49,-1120.54 473.76,-1117.91 464.09,-1113.57 463.49,-1120.54"/>
</g>
<!-- knowledgeBaseSearchHandler.js -->
<g id="node46" class="node">
<title>knowledgeBaseSearchHandler.js</title>
<path fill="none" stroke="#cfffac" d="M663.33,-1096C663.33,-1096 463.67,-1096 463.67,-1096 459.83,-1096 456,-1092.17 456,-1088.33 456,-1088.33 456,-1080.67 456,-1080.67 456,-1076.83 459.83,-1073 463.67,-1073 463.67,-1073 663.33,-1073 663.33,-1073 667.17,-1073 671,-1076.83 671,-1080.67 671,-1080.67 671,-1088.33 671,-1088.33 671,-1092.17 667.17,-1096 663.33,-1096"/>
<text text-anchor="middle" x="563.5" y="-1080.8" font-family="Arial" font-size="14.00" fill="#cfffac">knowledgeBaseSearchHandler.js</text>
</g>
<!-- knowledgeBaseComponent.js&#45;&gt;knowledgeBaseSearchHandler.js -->
<g id="edge43" class="edge">
<title>knowledgeBaseComponent.js&#45;&gt;knowledgeBaseSearchHandler.js</title>
<path fill="none" stroke="#757575" d="M414.03,-1096.6C424.39,-1095.75 435,-1094.89 445.56,-1094.03"/>
<polygon fill="#757575" stroke="#757575" points="445.97,-1097.5 455.66,-1093.2 445.41,-1090.53 445.97,-1097.5"/>
</g>
<!-- modalManager.js&#45;&gt;modalConstants.js -->
<g id="edge45" class="edge">
<title>modalManager.js&#45;&gt;modalConstants.js</title>
<path fill="none" stroke="#757575" d="M376.53,-128.99C391.4,-125.87 406.85,-121.02 420,-113.5 440.76,-101.63 435.15,-85.21 456,-73.5 466.25,-67.74 477.85,-63.6 489.51,-60.64"/>
<polygon fill="#757575" stroke="#757575" points="490.33,-64.04 499.31,-58.41 488.78,-57.21 490.33,-64.04"/>
</g>
<!-- navigationService.js&#45;&gt;utils/getSafeHandler.js -->
<g id="edge46" class="edge">
<title>navigationService.js&#45;&gt;utils/getSafeHandler.js</title>
<path fill="none" stroke="#757575" d="M384.41,-928.97C415.67,-923.62 452.98,-917.24 485.36,-911.7"/>
<polygon fill="#757575" stroke="#757575" points="485.98,-915.14 495.24,-910.01 484.79,-908.24 485.98,-915.14"/>
</g>
<!-- project&#45;details&#45;enhancements.js&#45;&gt;utils/selectorConstants.js -->
<g id="edge49" class="edge">
<title>project&#45;details&#45;enhancements.js&#45;&gt;utils/selectorConstants.js</title>
<path fill="none" stroke="#757575" d="M406.6,-829.01C411.36,-831.39 415.87,-834.2 420,-837.5 451.09,-862.35 433.27,-886.83 456,-919.5 479.68,-953.54 515.77,-985.55 539.25,-1004.59"/>
<polygon fill="#757575" stroke="#757575" points="537.28,-1007.5 547.28,-1011 541.65,-1002.03 537.28,-1007.5"/>
</g>
<!-- project&#45;details&#45;enhancements.js&#45;&gt;utils/getSafeHandler.js -->
<g id="edge47" class="edge">
<title>project&#45;details&#45;enhancements.js&#45;&gt;utils/getSafeHandler.js</title>
<path fill="none" stroke="#757575" d="M401.29,-829.08C407.81,-831.4 414.13,-834.18 420,-837.5 440.82,-849.28 435.2,-865.69 456,-877.5 462.86,-881.39 470.32,-884.57 478,-887.17"/>
<polygon fill="#757575" stroke="#757575" points="477.24,-890.6 487.82,-890.16 479.27,-883.9 477.24,-890.6"/>
</g>
<!-- utils/pullToRefresh.js -->
<g id="node34" class="node">
<title>utils/pullToRefresh.js</title>
<path fill="none" stroke="#cfffac" d="M625.83,-868C625.83,-868 501.17,-868 501.17,-868 497.33,-868 493.5,-864.17 493.5,-860.33 493.5,-860.33 493.5,-852.67 493.5,-852.67 493.5,-848.83 497.33,-845 501.17,-845 501.17,-845 625.83,-845 625.83,-845 629.67,-845 633.5,-848.83 633.5,-852.67 633.5,-852.67 633.5,-860.33 633.5,-860.33 633.5,-864.17 629.67,-868 625.83,-868"/>
<text text-anchor="middle" x="563.5" y="-852.8" font-family="Arial" font-size="14.00" fill="#cfffac">utils/pullToRefresh.js</text>
</g>
<!-- project&#45;details&#45;enhancements.js&#45;&gt;utils/pullToRefresh.js -->
<g id="edge48" class="edge">
<title>project&#45;details&#45;enhancements.js&#45;&gt;utils/pullToRefresh.js</title>
<path fill="none" stroke="#757575" d="M389.66,-829.04C419.13,-833.72 453.25,-839.15 483.35,-843.93"/>
<polygon fill="#757575" stroke="#757575" points="482.97,-847.41 493.39,-845.52 484.07,-840.5 482.97,-847.41"/>
</g>
<!-- projectDashboard.js&#45;&gt;utils/selectorConstants.js -->
<g id="edge51" class="edge">
<title>projectDashboard.js&#45;&gt;utils/selectorConstants.js</title>
<path fill="none" stroke="#757575" d="M384.73,-992.81C415.21,-997.9 451.4,-1003.95 483.14,-1009.25"/>
<polygon fill="#757575" stroke="#757575" points="482.84,-1012.74 493.28,-1010.94 483.99,-1005.84 482.84,-1012.74"/>
</g>
<!-- projectDashboard.js&#45;&gt;utils/getSafeHandler.js -->
<g id="edge50" class="edge">
<title>projectDashboard.js&#45;&gt;utils/getSafeHandler.js</title>
<path fill="none" stroke="#757575" d="M384.59,-970.63C396.5,-968.08 408.7,-965.04 420,-961.5 459.65,-949.06 503.03,-928.86 531.39,-914.7"/>
<polygon fill="#757575" stroke="#757575" points="533.05,-917.78 540.4,-910.14 529.9,-911.53 533.05,-917.78"/>
</g>
<!-- projectDetailsComponent.js&#45;&gt;utils/getSafeHandler.js -->
<g id="edge52" class="edge">
<title>projectDetailsComponent.js&#45;&gt;utils/getSafeHandler.js</title>
<path fill="none" stroke="#757575" d="M407.02,-899.13C430.15,-899.04 454.95,-898.94 477.79,-898.85"/>
<polygon fill="#757575" stroke="#757575" points="477.81,-902.35 487.8,-898.8 477.78,-895.35 477.81,-902.35"/>
</g>
<!-- projectListComponent.js&#45;&gt;utils/selectorConstants.js -->
<g id="edge53" class="edge">
<title>projectListComponent.js&#45;&gt;utils/selectorConstants.js</title>
<path fill="none" stroke="#757575" d="M386.04,-1051.97C416.37,-1046.9 452.15,-1040.93 483.53,-1035.69"/>
<polygon fill="#757575" stroke="#757575" points="484.27,-1039.11 493.55,-1034.01 483.11,-1032.21 484.27,-1039.11"/>
</g>
<!-- sidebar.js&#45;&gt;utils/globalUtils.js -->
<g id="edge57" class="edge">
<title>sidebar.js&#45;&gt;utils/globalUtils.js</title>
<path fill="none" stroke="#757575" d="M353.15,-250.02C423.77,-241.48 581.01,-233.56 671,-314.5 719.83,-358.42 753.2,-566.26 763.01,-634.64"/>
<polygon fill="#757575" stroke="#757575" points="759.57,-635.29 764.43,-644.71 766.5,-634.32 759.57,-635.29"/>
</g>
<!-- sidebar&#45;enhancements.js -->
<g id="node50" class="node">
<title>sidebar&#45;enhancements.js</title>
<path fill="none" stroke="#cfffac" d="M639.83,-188C639.83,-188 487.17,-188 487.17,-188 483.33,-188 479.5,-184.17 479.5,-180.33 479.5,-180.33 479.5,-172.67 479.5,-172.67 479.5,-168.83 483.33,-165 487.17,-165 487.17,-165 639.83,-165 639.83,-165 643.67,-165 647.5,-168.83 647.5,-172.67 647.5,-172.67 647.5,-180.33 647.5,-180.33 647.5,-184.17 643.67,-188 639.83,-188"/>
<text text-anchor="middle" x="563.5" y="-172.8" font-family="Arial" font-size="14.00" fill="#cfffac">sidebar&#45;enhancements.js</text>
</g>
<!-- sidebar.js&#45;&gt;sidebar&#45;enhancements.js -->
<g id="edge54" class="edge">
<title>sidebar.js&#45;&gt;sidebar&#45;enhancements.js</title>
<path fill="none" stroke="#757575" d="M353.18,-253.5C373.83,-251.09 399.58,-245.84 420,-234.5 440.34,-223.21 435.57,-207.63 456,-196.5 460.32,-194.15 464.86,-192.07 469.54,-190.23"/>
<polygon fill="#757575" stroke="#757575" points="471.04,-193.41 479.31,-186.78 468.72,-186.81 471.04,-193.41"/>
</g>
<!-- sidebarAuth.js -->
<g id="node51" class="node">
<title>sidebarAuth.js</title>
<path fill="none" stroke="#cfffac" d="M606.83,-147C606.83,-147 520.17,-147 520.17,-147 516.33,-147 512.5,-143.17 512.5,-139.33 512.5,-139.33 512.5,-131.67 512.5,-131.67 512.5,-127.83 516.33,-124 520.17,-124 520.17,-124 606.83,-124 606.83,-124 610.67,-124 614.5,-127.83 614.5,-131.67 614.5,-131.67 614.5,-139.33 614.5,-139.33 614.5,-143.17 610.67,-147 606.83,-147"/>
<text text-anchor="middle" x="563.5" y="-131.8" font-family="Arial" font-size="14.00" fill="#cfffac">sidebarAuth.js</text>
</g>
<!-- sidebar.js&#45;&gt;sidebarAuth.js -->
<g id="edge55" class="edge">
<title>sidebar.js&#45;&gt;sidebarAuth.js</title>
<path fill="none" stroke="#757575" d="M353.31,-256.02C374.76,-254.54 401.29,-249.39 420,-234.5 450.19,-210.47 425.62,-179.29 456,-155.5 469.12,-145.22 485.92,-139.66 502.28,-136.79"/>
<polygon fill="#757575" stroke="#757575" points="502.97,-140.22 512.37,-135.32 501.97,-133.29 502.97,-140.22"/>
</g>
<!-- sidebarMobileDock.js -->
<g id="node52" class="node">
<title>sidebarMobileDock.js</title>
<path fill="none" stroke="#cfffac" d="M628.83,-229C628.83,-229 498.17,-229 498.17,-229 494.33,-229 490.5,-225.17 490.5,-221.33 490.5,-221.33 490.5,-213.67 490.5,-213.67 490.5,-209.83 494.33,-206 498.17,-206 498.17,-206 628.83,-206 628.83,-206 632.67,-206 636.5,-209.83 636.5,-213.67 636.5,-213.67 636.5,-221.33 636.5,-221.33 636.5,-225.17 632.67,-229 628.83,-229"/>
<text text-anchor="middle" x="563.5" y="-213.8" font-family="Arial" font-size="14.00" fill="#cfffac">sidebarMobileDock.js</text>
</g>
<!-- sidebar.js&#45;&gt;sidebarMobileDock.js -->
<g id="edge56" class="edge">
<title>sidebar.js&#45;&gt;sidebarMobileDock.js</title>
<path fill="none" stroke="#757575" d="M353.22,-249.89C386.57,-244.73 437.26,-236.89 480.39,-230.21"/>
<polygon fill="#757575" stroke="#757575" points="480.98,-233.66 490.32,-228.67 479.9,-226.74 480.98,-233.66"/>
</g>
<!-- utils/browserService.js&#45;&gt;utils/session.js -->
<g id="edge58" class="edge">
<title>utils/browserService.js&#45;&gt;utils/session.js</title>
<path fill="none" stroke="#757575" d="M1014.1,-385.74C1022.68,-386.8 1031.35,-387.88 1039.73,-388.91"/>
<polygon fill="#757575" stroke="#757575" points="1039.42,-392.4 1049.77,-390.16 1040.28,-385.45 1039.42,-392.4"/>
</g>
<!-- utils/globalUtils.js&#45;&gt;projectManager.js -->
<g id="edge59" class="edge">
<title>utils/globalUtils.js&#45;&gt;projectManager.js</title>
<path fill="none" stroke="#757575" d="M783.71,-668.19C801.94,-681.3 833.33,-702.42 863,-715.5 868.07,-717.74 873.44,-719.8 878.89,-721.68"/>
<polygon fill="#757575" stroke="#757575" points="878.12,-725.11 888.71,-724.88 880.29,-718.46 878.12,-725.11"/>
</g>
<!-- utils/globalUtils.js&#45;&gt;utils/apiClient.js -->
<g id="edge60" class="edge">
<title>utils/globalUtils.js&#45;&gt;utils/apiClient.js</title>
<path fill="none" stroke="#757575" d="M818.4,-668.1C836.93,-672.36 858.1,-677.23 877.4,-681.67"/>
<polygon fill="#757575" stroke="#757575" points="876.77,-685.12 887.3,-683.95 878.34,-678.3 876.77,-685.12"/>
</g>
<!-- utils/globalUtils.js&#45;&gt;utils/browserService.js -->
<g id="edge61" class="edge">
<title>utils/globalUtils.js&#45;&gt;utils/browserService.js</title>
<path fill="none" stroke="#757575" d="M775.07,-644.83C801.07,-601.86 891.67,-452.21 925.04,-397.09"/>
<polygon fill="#757575" stroke="#757575" points="928.22,-398.59 930.4,-388.22 922.23,-394.97 928.22,-398.59"/>
</g>
<!-- utils/storageService.js -->
<g id="node55" class="node">
<title>utils/storageService.js</title>
<path fill="none" stroke="#cfffac" d="M1004.83,-666C1004.83,-666 872.17,-666 872.17,-666 868.33,-666 864.5,-662.17 864.5,-658.33 864.5,-658.33 864.5,-650.67 864.5,-650.67 864.5,-646.83 868.33,-643 872.17,-643 872.17,-643 1004.83,-643 1004.83,-643 1008.67,-643 1012.5,-646.83 1012.5,-650.67 1012.5,-650.67 1012.5,-658.33 1012.5,-658.33 1012.5,-662.17 1008.67,-666 1004.83,-666"/>
<text text-anchor="middle" x="938.5" y="-650.8" font-family="Arial" font-size="14.00" fill="#cfffac">utils/storageService.js</text>
</g>
<!-- utils/globalUtils.js&#45;&gt;utils/storageService.js -->
<g id="edge62" class="edge">
<title>utils/globalUtils.js&#45;&gt;utils/storageService.js</title>
<path fill="none" stroke="#757575" d="M827.28,-655.8C835.95,-655.7 845.02,-655.59 854.06,-655.48"/>
<polygon fill="#757575" stroke="#757575" points="854.28,-658.98 864.24,-655.36 854.2,-651.98 854.28,-658.98"/>
</g>
<!-- chat&#45;ui&#45;utils.js -->
<g id="node29" class="node">
<title>chat&#45;ui&#45;utils.js</title>
<path fill="none" stroke="#cfffac" d="M129.83,-790C129.83,-790 46.17,-790 46.17,-790 42.33,-790 38.5,-786.17 38.5,-782.33 38.5,-782.33 38.5,-774.67 38.5,-774.67 38.5,-770.83 42.33,-767 46.17,-767 46.17,-767 129.83,-767 129.83,-767 133.67,-767 137.5,-770.83 137.5,-774.67 137.5,-774.67 137.5,-782.33 137.5,-782.33 137.5,-786.17 133.67,-790 129.83,-790"/>
<text text-anchor="middle" x="88" y="-774.8" font-family="Arial" font-size="14.00" fill="#cfffac">chat&#45;ui&#45;utils.js</text>
</g>
<!-- chatExtensions.js -->
<g id="node31" class="node">
<title>chatExtensions.js</title>
<path fill="none" stroke="#cfffac" d="M141.33,-892C141.33,-892 34.67,-892 34.67,-892 30.83,-892 27,-888.17 27,-884.33 27,-884.33 27,-876.67 27,-876.67 27,-872.83 30.83,-869 34.67,-869 34.67,-869 141.33,-869 141.33,-869 145.17,-869 149,-872.83 149,-876.67 149,-876.67 149,-884.33 149,-884.33 149,-888.17 145.17,-892 141.33,-892"/>
<text text-anchor="middle" x="88" y="-876.8" font-family="Arial" font-size="14.00" fill="#cfffac">chatExtensions.js</text>
</g>
<!-- chatUIEnhancements.js -->
<g id="node32" class="node">
<title>chatUIEnhancements.js</title>
<path fill="none" stroke="#c6c5fe" d="M388.33,-788C388.33,-788 243.67,-788 243.67,-788 239.83,-788 236,-784.17 236,-780.33 236,-780.33 236,-772.67 236,-772.67 236,-768.83 239.83,-765 243.67,-765 243.67,-765 388.33,-765 388.33,-765 392.17,-765 396,-768.83 396,-772.67 396,-772.67 396,-780.33 396,-780.33 396,-784.17 392.17,-788 388.33,-788"/>
<text text-anchor="middle" x="316" y="-772.8" font-family="Arial" font-size="14.00" fill="#c6c5fe">chatUIEnhancements.js</text>
</g>
<!-- chatUIEnhancements.js&#45;&gt;utils/globalUtils.js -->
<g id="edge30" class="edge">
<title>chatUIEnhancements.js&#45;&gt;utils/globalUtils.js</title>
<path fill="none" stroke="#757575" d="M381.71,-788.02C469.93,-802.41 622.52,-822.19 671,-796.5 718.78,-771.18 746.96,-709.89 759.03,-677.45"/>
<polygon fill="#757575" stroke="#757575" points="762.33,-678.6 762.39,-668.01 755.74,-676.26 762.33,-678.6"/>
</g>
<!-- chatUIEnhancements.js&#45;&gt;utils/getSafeHandler.js -->
<g id="edge29" class="edge">
<title>chatUIEnhancements.js&#45;&gt;utils/getSafeHandler.js</title>
<path fill="none" stroke="#757575" d="M396.16,-783.59C404.77,-786.69 412.94,-790.89 420,-796.5 450.83,-821.03 425.21,-852.92 456,-877.5 462.67,-882.82 470.31,-886.92 478.37,-890.06"/>
<polygon fill="#757575" stroke="#757575" points="477.4,-893.43 488,-893.32 479.65,-886.8 477.4,-893.43"/>
</g>
<!-- utils/initHelpers.js -->
<g id="node33" class="node">
<title>utils/initHelpers.js</title>
<path fill="none" stroke="#cfffac" d="M616.83,-788C616.83,-788 510.17,-788 510.17,-788 506.33,-788 502.5,-784.17 502.5,-780.33 502.5,-780.33 502.5,-772.67 502.5,-772.67 502.5,-768.83 506.33,-765 510.17,-765 510.17,-765 616.83,-765 616.83,-765 620.67,-765 624.5,-768.83 624.5,-772.67 624.5,-772.67 624.5,-780.33 624.5,-780.33 624.5,-784.17 620.67,-788 616.83,-788"/>
<text text-anchor="middle" x="563.5" y="-772.8" font-family="Arial" font-size="14.00" fill="#cfffac">utils/initHelpers.js</text>
</g>
<!-- chatUIEnhancements.js&#45;&gt;utils/initHelpers.js -->
<g id="edge31" class="edge">
<title>chatUIEnhancements.js&#45;&gt;utils/initHelpers.js</title>
<path fill="none" stroke="#757575" d="M396.03,-776.5C426.87,-776.5 461.96,-776.5 491.94,-776.5"/>
<polygon fill="#757575" stroke="#757575" points="492.31,-780 502.31,-776.5 492.31,-773 492.31,-780"/>
</g>
<!-- chatUIEnhancements.js&#45;&gt;utils/pullToRefresh.js -->
<g id="edge32" class="edge">
<title>chatUIEnhancements.js&#45;&gt;utils/pullToRefresh.js</title>
<path fill="none" stroke="#757575" d="M396.17,-787.07C404.44,-789.58 412.55,-792.67 420,-796.5 439.58,-806.55 436.67,-819.98 456,-830.5 464.59,-835.17 474.02,-839.02 483.61,-842.18"/>
<polygon fill="#757575" stroke="#757575" points="482.64,-845.54 493.23,-845.11 484.69,-838.84 482.64,-845.54"/>
</g>
<!-- errorReporter.js -->
<g id="node35" class="node">
<title>errorReporter.js</title>
<path fill="none" stroke="#cfffac" d="M135.33,-963C135.33,-963 40.67,-963 40.67,-963 36.83,-963 33,-959.17 33,-955.33 33,-955.33 33,-947.67 33,-947.67 33,-943.83 36.83,-940 40.67,-940 40.67,-940 135.33,-940 135.33,-940 139.17,-940 143,-943.83 143,-947.67 143,-947.67 143,-955.33 143,-955.33 143,-959.17 139.17,-963 135.33,-963"/>
<text text-anchor="middle" x="88" y="-947.8" font-family="Arial" font-size="14.00" fill="#cfffac">errorReporter.js</text>
</g>
<!-- eventHandler.js&#45;&gt;utils/globalUtils.js -->
<g id="edge33" class="edge">
<title>eventHandler.js&#45;&gt;utils/globalUtils.js</title>
<path fill="none" stroke="#757575" d="M618.62,-457.37C636.69,-459.95 656.01,-465.45 671,-476.5 725.1,-516.39 751.25,-596.38 761.12,-634.86"/>
<polygon fill="#757575" stroke="#757575" points="757.81,-636.07 763.58,-644.96 764.62,-634.41 757.81,-636.07"/>
</g>
<!-- formatting.js -->
<g id="node37" class="node">
<title>formatting.js</title>
<path fill="none" stroke="#cfffac" d="M125.83,-1019C125.83,-1019 50.17,-1019 50.17,-1019 46.33,-1019 42.5,-1015.17 42.5,-1011.33 42.5,-1011.33 42.5,-1003.67 42.5,-1003.67 42.5,-999.83 46.33,-996 50.17,-996 50.17,-996 125.83,-996 125.83,-996 129.67,-996 133.5,-999.83 133.5,-1003.67 133.5,-1003.67 133.5,-1011.33 133.5,-1011.33 133.5,-1015.17 129.67,-1019 125.83,-1019"/>
<text text-anchor="middle" x="88" y="-1003.8" font-family="Arial" font-size="14.00" fill="#cfffac">formatting.js</text>
</g>
<!-- kb&#45;result&#45;handlers.js -->
<g id="node44" class="node">
<title>kb&#45;result&#45;handlers.js</title>
<path fill="none" stroke="#cfffac" d="M149.33,-1068C149.33,-1068 26.67,-1068 26.67,-1068 22.83,-1068 19,-1064.17 19,-1060.33 19,-1060.33 19,-1052.67 19,-1052.67 19,-1048.83 22.83,-1045 26.67,-1045 26.67,-1045 149.33,-1045 149.33,-1045 153.17,-1045 157,-1048.83 157,-1052.67 157,-1052.67 157,-1060.33 157,-1060.33 157,-1064.17 153.17,-1068 149.33,-1068"/>
<text text-anchor="middle" x="88" y="-1052.8" font-family="Arial" font-size="14.00" fill="#cfffac">kb&#45;result&#45;handlers.js</text>
</g>
<!-- projectDashboardFix.js -->
<g id="node47" class="node">
<title>projectDashboardFix.js</title>
<path fill="none" stroke="#cfffac" d="M157.83,-1113C157.83,-1113 18.17,-1113 18.17,-1113 14.33,-1113 10.5,-1109.17 10.5,-1105.33 10.5,-1105.33 10.5,-1097.67 10.5,-1097.67 10.5,-1093.83 14.33,-1090 18.17,-1090 18.17,-1090 157.83,-1090 157.83,-1090 161.67,-1090 165.5,-1093.83 165.5,-1097.67 165.5,-1097.67 165.5,-1105.33 165.5,-1105.33 165.5,-1109.17 161.67,-1113 157.83,-1113"/>
<text text-anchor="middle" x="88" y="-1097.8" font-family="Arial" font-size="14.00" fill="#cfffac">projectDashboardFix.js</text>
</g>
<!-- projectDashboardUtils.js -->
<g id="node48" class="node">
<title>projectDashboardUtils.js</title>
<path fill="none" stroke="#cfffac" d="M161.83,-1156C161.83,-1156 14.17,-1156 14.17,-1156 10.33,-1156 6.5,-1152.17 6.5,-1148.33 6.5,-1148.33 6.5,-1140.67 6.5,-1140.67 6.5,-1136.83 10.33,-1133 14.17,-1133 14.17,-1133 161.83,-1133 161.83,-1133 165.67,-1133 169.5,-1136.83 169.5,-1140.67 169.5,-1140.67 169.5,-1148.33 169.5,-1148.33 169.5,-1152.17 165.67,-1156 161.83,-1156"/>
<text text-anchor="middle" x="88" y="-1140.8" font-family="Arial" font-size="14.00" fill="#cfffac">projectDashboardUtils.js</text>
</g>
<!-- services/starredStorage.js -->
<g id="node49" class="node">
<title>services/starredStorage.js</title>
<path fill="none" stroke="#cfffac" d="M166.83,-1198C166.83,-1198 9.17,-1198 9.17,-1198 5.33,-1198 1.5,-1194.17 1.5,-1190.33 1.5,-1190.33 1.5,-1182.67 1.5,-1182.67 1.5,-1178.83 5.33,-1175 9.17,-1175 9.17,-1175 166.83,-1175 166.83,-1175 170.67,-1175 174.5,-1178.83 174.5,-1182.67 174.5,-1182.67 174.5,-1190.33 174.5,-1190.33 174.5,-1194.17 170.67,-1198 166.83,-1198"/>
<text text-anchor="middle" x="88" y="-1182.8" font-family="Arial" font-size="14.00" fill="#cfffac">services/starredStorage.js</text>
</g>
<!-- theme&#45;toggle.js -->
<g id="node53" class="node">
<title>theme&#45;toggle.js</title>
<path fill="none" stroke="#cfffac" d="M135.33,-1239C135.33,-1239 40.67,-1239 40.67,-1239 36.83,-1239 33,-1235.17 33,-1231.33 33,-1231.33 33,-1223.67 33,-1223.67 33,-1219.83 36.83,-1216 40.67,-1216 40.67,-1216 135.33,-1216 135.33,-1216 139.17,-1216 143,-1219.83 143,-1223.67 143,-1223.67 143,-1231.33 143,-1231.33 143,-1235.17 139.17,-1239 135.33,-1239"/>
<text text-anchor="middle" x="88" y="-1223.8" font-family="Arial" font-size="14.00" fill="#cfffac">theme&#45;toggle.js</text>
</g>
<!-- utils/errorReporterStub.js -->
<g id="node54" class="node">
<title>utils/errorReporterStub.js</title>
<path fill="none" stroke="#cfffac" d="M163.83,-1280C163.83,-1280 12.17,-1280 12.17,-1280 8.33,-1280 4.5,-1276.17 4.5,-1272.33 4.5,-1272.33 4.5,-1264.67 4.5,-1264.67 4.5,-1260.83 8.33,-1257 12.17,-1257 12.17,-1257 163.83,-1257 163.83,-1257 167.67,-1257 171.5,-1260.83 171.5,-1264.67 171.5,-1264.67 171.5,-1272.33 171.5,-1272.33 171.5,-1276.17 167.67,-1280 163.83,-1280"/>
<text text-anchor="middle" x="88" y="-1264.8" font-family="Arial" font-size="14.00" fill="#cfffac">utils/errorReporterStub.js</text>
</g>
<!-- vendor/dompurify&#45;global.js -->
<g id="node56" class="node">
<title>vendor/dompurify&#45;global.js</title>
<path fill="none" stroke="#c6c5fe" d="M168.33,-1321C168.33,-1321 7.67,-1321 7.67,-1321 3.83,-1321 0,-1317.17 0,-1313.33 0,-1313.33 0,-1305.67 0,-1305.67 0,-1301.83 3.83,-1298 7.67,-1298 7.67,-1298 168.33,-1298 168.33,-1298 172.17,-1298 176,-1301.83 176,-1305.67 176,-1305.67 176,-1313.33 176,-1313.33 176,-1317.17 172.17,-1321 168.33,-1321"/>
<text text-anchor="middle" x="88" y="-1305.8" font-family="Arial" font-size="14.00" fill="#c6c5fe">vendor/dompurify&#45;global.js</text>
</g>
<!-- vendor/dompurify.es.js -->
<g id="node57" class="node">
<title>vendor/dompurify.es.js</title>
<path fill="none" stroke="#cfffac" d="M384.33,-1321C384.33,-1321 247.67,-1321 247.67,-1321 243.83,-1321 240,-1317.17 240,-1313.33 240,-1313.33 240,-1305.67 240,-1305.67 240,-1301.83 243.83,-1298 247.67,-1298 247.67,-1298 384.33,-1298 384.33,-1298 388.17,-1298 392,-1301.83 392,-1305.67 392,-1305.67 392,-1313.33 392,-1313.33 392,-1317.17 388.17,-1321 384.33,-1321"/>
<text text-anchor="middle" x="316" y="-1305.8" font-family="Arial" font-size="14.00" fill="#cfffac">vendor/dompurify.es.js</text>
</g>
<!-- vendor/dompurify&#45;global.js&#45;&gt;vendor/dompurify.es.js -->
<g id="edge63" class="edge">
<title>vendor/dompurify&#45;global.js&#45;&gt;vendor/dompurify.es.js</title>
<path fill="none" stroke="#757575" d="M176.05,-1309.5C193.62,-1309.5 212.07,-1309.5 229.58,-1309.5"/>
<polygon fill="#757575" stroke="#757575" points="229.77,-1313 239.77,-1309.5 229.77,-1306 229.77,-1313"/>
</g>
</g>
</svg>
